# 3ds Max Wavefront OBJ Exporter v0.97b - (c)2007 guruware
# File Created: 25.05.2018 12:56:56

mtllib Column.mtl

#
# object Cylinder001
#

v  -0.1938 0.0000 -1.7945
v  6.5032 0.0000 -7.4140
v  8.0213 0.0000 -4.7846
v  8.5485 0.0000 -1.7945
v  1.3243 0.0000 -10.4040
v  4.1773 0.0000 -9.3656
v  -4.5650 0.0000 -9.3656
v  -1.7119 0.0000 -10.4040
v  -8.4090 0.0000 -4.7846
v  -6.8909 0.0000 -7.4140
v  -8.4090 0.0000 1.1955
v  -8.9362 0.0000 -1.7945
v  -4.5650 0.0000 5.7766
v  -6.8909 0.0000 3.8249
v  1.3243 0.0000 6.8150
v  -1.7119 0.0000 6.8150
v  6.5032 0.0000 3.8250
v  4.1773 0.0000 5.7766
v  8.0213 0.0000 1.1955
v  8.0213 21.0428 -4.7846
v  8.5485 21.0428 -1.7945
v  6.5032 21.0428 -7.4140
v  4.1773 21.0428 -9.3656
v  1.3243 21.0428 -10.4040
v  -1.7119 21.0428 -10.4040
v  -4.5650 21.0428 -9.3656
v  -6.8909 21.0428 -7.4140
v  -8.4090 21.0428 -4.7846
v  -8.9362 21.0428 -1.7945
v  -8.4090 21.0428 1.1955
v  -6.8909 21.0428 3.8249
v  -4.5650 21.0428 5.7766
v  -1.7119 21.0428 6.8150
v  1.3243 21.0428 6.8150
v  4.1773 21.0428 5.7766
v  6.5032 21.0428 3.8250
v  8.0213 21.0428 1.1955
v  8.0213 42.0855 -4.7846
v  8.5485 42.0855 -1.7945
v  6.5032 42.0855 -7.4140
v  4.1773 42.0855 -9.3656
v  1.3243 42.0855 -10.4040
v  -1.7119 42.0855 -10.4040
v  -4.5650 42.0855 -9.3656
v  -6.8909 42.0855 -7.4140
v  -8.4090 42.0855 -4.7846
v  -8.9362 42.0855 -1.7945
v  -8.4090 42.0855 1.1955
v  -6.8909 42.0855 3.8249
v  -4.5650 42.0855 5.7766
v  -1.7119 42.0855 6.8150
v  1.3243 42.0855 6.8150
v  4.1773 42.0855 5.7766
v  6.5032 42.0855 3.8250
v  8.0213 42.0855 1.1955
v  8.0213 63.1283 -4.7846
v  8.5485 63.1283 -1.7945
v  6.5032 63.1283 -7.4140
v  4.1773 63.1283 -9.3656
v  1.3243 63.1283 -10.4040
v  -1.7119 63.1283 -10.4040
v  -4.5650 63.1283 -9.3656
v  -6.8909 63.1283 -7.4140
v  -8.4090 63.1283 -4.7846
v  -8.9362 63.1283 -1.7945
v  -8.4090 63.1283 1.1955
v  -6.8909 63.1283 3.8249
v  -4.5650 63.1283 5.7766
v  -1.7119 63.1283 6.8150
v  1.3243 63.1283 6.8150
v  4.1773 63.1283 5.7766
v  6.5032 63.1283 3.8250
v  8.0213 63.1283 1.1955
v  8.0213 84.1711 -4.7846
v  8.5485 84.1711 -1.7945
v  6.5032 84.1711 -7.4140
v  4.1773 84.1711 -9.3656
v  1.3243 84.1711 -10.4040
v  -1.7119 84.1711 -10.4040
v  -4.5650 84.1711 -9.3656
v  -6.8909 84.1711 -7.4140
v  -8.4090 84.1711 -4.7846
v  -8.9362 84.1711 -1.7945
v  -8.4090 84.1711 1.1955
v  -6.8909 84.1711 3.8249
v  -4.5650 84.1711 5.7766
v  -1.7119 84.1711 6.8150
v  1.3243 84.1711 6.8150
v  4.1773 84.1711 5.7766
v  6.5032 84.1711 3.8250
v  8.0213 84.1711 1.1955
v  8.0213 105.2139 -4.7846
v  8.5485 105.2139 -1.7945
v  6.5032 105.2139 -7.4140
v  4.1773 105.2139 -9.3656
v  1.3243 105.2139 -10.4040
v  -1.7119 105.2139 -10.4040
v  -4.5650 105.2139 -9.3656
v  -6.8909 105.2139 -7.4140
v  -8.4090 105.2139 -4.7846
v  -8.9362 105.2139 -1.7945
v  -8.4090 105.2139 1.1955
v  -6.8909 105.2139 3.8249
v  -4.5650 105.2139 5.7766
v  -1.7119 105.2139 6.8150
v  1.3243 105.2139 6.8150
v  4.1773 105.2139 5.7766
v  6.5032 105.2139 3.8250
v  8.0213 105.2139 1.1955
v  -0.1938 105.2139 -1.7945
# 110 vertices

vn 0.0000 -1.0000 -0.0000
vn 0.5687 -0.6700 -0.4772
vn 0.6976 -0.6700 -0.2539
vn 0.7423 -0.6700 0.0000
vn 0.1289 -0.6701 -0.7310
vn 0.3712 -0.6701 -0.6428
vn -0.3711 -0.6701 -0.6429
vn -0.1289 -0.6700 -0.7311
vn -0.6975 -0.6701 -0.2539
vn -0.5686 -0.6701 -0.4771
vn -0.6976 -0.6700 0.2539
vn -0.7423 -0.6700 -0.0000
vn -0.3712 -0.6700 0.6429
vn -0.5687 -0.6700 0.4772
vn 0.1289 -0.6700 0.7311
vn -0.1289 -0.6700 0.7311
vn 0.5687 -0.6700 0.4772
vn 0.3712 -0.6700 0.6429
vn 0.6976 -0.6700 0.2539
vn 0.9397 -0.0000 -0.3420
vn 1.0000 -0.0000 0.0000
vn 0.7660 -0.0000 -0.6428
vn 0.5000 -0.0000 -0.8660
vn 0.1736 -0.0000 -0.9848
vn -0.1736 -0.0000 -0.9848
vn -0.5000 -0.0000 -0.8660
vn -0.7660 -0.0000 -0.6428
vn -0.9397 -0.0000 -0.3420
vn -1.0000 -0.0000 -0.0000
vn -0.9397 -0.0000 0.3420
vn -0.7660 -0.0000 0.6428
vn -0.5000 -0.0000 0.8660
vn -0.1736 -0.0000 0.9848
vn 0.1736 -0.0000 0.9848
vn 0.5000 -0.0000 0.8660
vn 0.7660 -0.0000 0.6428
vn 0.9397 -0.0000 0.3420
vn -0.1736 0.0000 -0.9848
vn -0.7661 -0.0000 -0.6428
vn 0.5000 0.0000 0.8660
vn 0.7660 0.0000 0.6428
vn 0.9397 0.0000 0.3420
vn 0.9397 0.0000 -0.3420
vn 1.0000 0.0000 0.0000
vn 0.7660 0.0000 -0.6428
vn 0.5000 0.0000 -0.8660
vn 0.1736 0.0000 -0.9848
vn -0.5000 0.0000 -0.8660
vn -0.7660 0.0000 -0.6428
vn -0.9397 0.0000 -0.3420
vn -1.0000 0.0000 -0.0000
vn -0.9397 0.0000 0.3420
vn -0.7660 0.0000 0.6428
vn -0.5000 0.0000 0.8660
vn -0.1736 0.0000 0.9848
vn 0.1736 0.0000 0.9848
vn 0.6976 0.6700 -0.2539
vn 0.7423 0.6700 0.0000
vn 0.5687 0.6700 -0.4772
vn 0.3712 0.6701 -0.6428
vn 0.1289 0.6701 -0.7310
vn -0.1289 0.6700 -0.7311
vn -0.3711 0.6701 -0.6429
vn -0.5686 0.6701 -0.4771
vn -0.6975 0.6701 -0.2539
vn -0.7423 0.6700 -0.0000
vn -0.6976 0.6700 0.2539
vn -0.5687 0.6700 0.4772
vn -0.3712 0.6700 0.6429
vn -0.1289 0.6700 0.7311
vn 0.1289 0.6700 0.7311
vn 0.3712 0.6700 0.6429
vn 0.5687 0.6700 0.4772
vn 0.6976 0.6700 0.2539
vn 0.0000 1.0000 -0.0000
# 75 vertex normals

vt 0.5000 0.0000 0.0000
vt 0.8611 0.0000 1.0000
vt 0.8056 0.0000 1.0000
vt 0.7500 0.0000 1.0000
vt 0.9722 0.0000 1.0000
vt 0.9167 0.0000 1.0000
vt 0.0833 0.0000 1.0000
vt 0.0278 0.0000 1.0000
vt -0.0278 0.0000 1.0000
vt 0.1944 0.0000 1.0000
vt 0.1389 0.0000 1.0000
vt 0.3056 0.0000 1.0000
vt 0.2500 0.0000 1.0000
vt 0.4167 0.0000 1.0000
vt 0.3611 0.0000 1.0000
vt 0.5278 0.0000 1.0000
vt 0.4722 0.0000 1.0000
vt 0.6389 0.0000 1.0000
vt 0.5833 0.0000 1.0000
vt 0.6944 0.0000 1.0000
vt 0.8056 0.2000 1.0000
vt 0.7500 0.2000 1.0000
vt 0.8611 0.2000 1.0000
vt 0.9167 0.2000 1.0000
vt 0.9722 0.2000 1.0000
vt 0.0278 0.2000 1.0000
vt -0.0278 0.2000 1.0000
vt 0.0833 0.2000 1.0000
vt 0.1389 0.2000 1.0000
vt 0.1944 0.2000 1.0000
vt 0.2500 0.2000 1.0000
vt 0.3056 0.2000 1.0000
vt 0.3611 0.2000 1.0000
vt 0.4167 0.2000 1.0000
vt 0.4722 0.2000 1.0000
vt 0.5278 0.2000 1.0000
vt 0.5833 0.2000 1.0000
vt 0.6389 0.2000 1.0000
vt 0.6944 0.2000 1.0000
vt 0.8056 0.4000 1.0000
vt 0.7500 0.4000 1.0000
vt 0.8611 0.4000 1.0000
vt 0.9167 0.4000 1.0000
vt 0.9722 0.4000 1.0000
vt 0.0278 0.4000 1.0000
vt -0.0278 0.4000 1.0000
vt 0.0833 0.4000 1.0000
vt 0.1389 0.4000 1.0000
vt 0.1944 0.4000 1.0000
vt 0.2500 0.4000 1.0000
vt 0.3056 0.4000 1.0000
vt 0.3611 0.4000 1.0000
vt 0.4167 0.4000 1.0000
vt 0.4722 0.4000 1.0000
vt 0.5278 0.4000 1.0000
vt 0.5833 0.4000 1.0000
vt 0.6389 0.4000 1.0000
vt 0.6944 0.4000 1.0000
vt 0.8056 0.6000 1.0000
vt 0.7500 0.6000 1.0000
vt 0.8611 0.6000 1.0000
vt 0.9167 0.6000 1.0000
vt 0.9722 0.6000 1.0000
vt 0.0278 0.6000 1.0000
vt -0.0278 0.6000 1.0000
vt 0.0833 0.6000 1.0000
vt 0.1389 0.6000 1.0000
vt 0.1944 0.6000 1.0000
vt 0.2500 0.6000 1.0000
vt 0.3056 0.6000 1.0000
vt 0.3611 0.6000 1.0000
vt 0.4167 0.6000 1.0000
vt 0.4722 0.6000 1.0000
vt 0.5278 0.6000 1.0000
vt 0.5833 0.6000 1.0000
vt 0.6389 0.6000 1.0000
vt 0.6944 0.6000 1.0000
vt 0.8056 0.8000 1.0000
vt 0.7500 0.8000 1.0000
vt 0.8611 0.8000 1.0000
vt 0.9167 0.8000 1.0000
vt 0.9722 0.8000 1.0000
vt 0.0278 0.8000 1.0000
vt -0.0278 0.8000 1.0000
vt 0.0833 0.8000 1.0000
vt 0.1389 0.8000 1.0000
vt 0.1944 0.8000 1.0000
vt 0.2500 0.8000 1.0000
vt 0.3056 0.8000 1.0000
vt 0.3611 0.8000 1.0000
vt 0.4167 0.8000 1.0000
vt 0.4722 0.8000 1.0000
vt 0.5278 0.8000 1.0000
vt 0.5833 0.8000 1.0000
vt 0.6389 0.8000 1.0000
vt 0.6944 0.8000 1.0000
vt 0.8056 1.0000 1.0000
vt 0.7500 1.0000 1.0000
vt 0.8611 1.0000 1.0000
vt 0.9167 1.0000 1.0000
vt 0.9722 1.0000 1.0000
vt 0.0278 1.0000 1.0000
vt -0.0278 1.0000 1.0000
vt 0.0833 1.0000 1.0000
vt 0.1389 1.0000 1.0000
vt 0.1944 1.0000 1.0000
vt 0.2500 1.0000 1.0000
vt 0.3056 1.0000 1.0000
vt 0.3611 1.0000 1.0000
vt 0.4167 1.0000 1.0000
vt 0.4722 1.0000 1.0000
vt 0.5278 1.0000 1.0000
vt 0.5833 1.0000 1.0000
vt 0.6389 1.0000 1.0000
vt 0.6944 1.0000 1.0000
vt 0.5000 1.0000 0.0000
vt -0.0197 1.0000 0.8794
# 117 texture coords

o Cylinder001
g Cylinder001
usemtl wire_228184153
s 1
f 1/1/1 2/2/2 3/3/3 4/4/4 
f 1/1/1 5/5/5 6/6/6 2/2/2 
f 1/1/1 7/7/7 8/8/8 5/9/5 
f 1/1/1 9/10/9 10/11/10 7/7/7 
f 1/1/1 11/12/11 12/13/12 9/10/9 
f 1/1/1 13/14/13 14/15/14 11/12/11 
f 1/1/1 15/16/15 16/17/16 13/14/13 
f 1/1/1 17/18/17 18/19/18 15/16/15 
f 1/1/1 4/4/4 19/20/19 17/18/17 
s 8
f 4/4/4 3/3/3 20/21/20 21/22/21 
f 3/3/3 2/2/2 22/23/22 20/21/20 
f 2/2/2 6/6/6 23/24/23 22/23/22 
f 6/6/6 5/5/5 24/25/24 23/24/23 
f 5/9/5 8/8/8 25/26/25 24/27/24 
f 8/8/8 7/7/7 26/28/26 25/26/25 
f 7/7/7 10/11/10 27/29/27 26/28/26 
f 10/11/10 9/10/9 28/30/28 27/29/27 
f 9/10/9 12/13/12 29/31/29 28/30/28 
f 12/13/12 11/12/11 30/32/30 29/31/29 
f 11/12/11 14/15/14 31/33/31 30/32/30 
f 14/15/14 13/14/13 32/34/32 31/33/31 
f 13/14/13 16/17/16 33/35/33 32/34/32 
f 16/17/16 15/16/15 34/36/34 33/35/33 
f 15/16/15 18/19/18 35/37/35 34/36/34 
f 18/19/18 17/18/17 36/38/36 35/37/35 
f 17/18/17 19/20/19 37/39/37 36/38/36 
f 19/20/19 4/4/4 21/22/21 37/39/37 
f 21/22/21 20/21/20 38/40/20 39/41/21 
f 20/21/20 22/23/22 40/42/22 38/40/20 
f 22/23/22 23/24/23 41/43/23 40/42/22 
f 23/24/23 24/25/24 42/44/24 41/43/23 
f 24/27/24 25/26/25 43/45/38 42/46/24 
f 25/26/25 26/28/26 44/47/26 43/45/38 
f 26/28/26 27/29/27 45/48/39 44/47/26 
f 27/29/27 28/30/28 46/49/28 45/48/39 
f 28/30/28 29/31/29 47/50/29 46/49/28 
f 29/31/29 30/32/30 48/51/30 47/50/29 
f 30/32/30 31/33/31 49/52/31 48/51/30 
f 31/33/31 32/34/32 50/53/32 49/52/31 
f 32/34/32 33/35/33 51/54/33 50/53/32 
f 33/35/33 34/36/34 52/55/34 51/54/33 
f 34/36/34 35/37/35 53/56/40 52/55/34 
f 35/37/35 36/38/36 54/57/41 53/56/40 
f 36/38/36 37/39/37 55/58/42 54/57/41 
f 37/39/37 21/22/21 39/41/21 55/58/42 
f 39/41/21 38/40/20 56/59/43 57/60/44 
f 38/40/20 40/42/22 58/61/45 56/59/43 
f 40/42/22 41/43/23 59/62/46 58/61/45 
f 41/43/23 42/44/24 60/63/47 59/62/46 
f 42/46/24 43/45/38 61/64/38 60/65/47 
f 43/45/38 44/47/26 62/66/48 61/64/38 
f 44/47/26 45/48/39 63/67/49 62/66/48 
f 45/48/39 46/49/28 64/68/50 63/67/49 
f 46/49/28 47/50/29 65/69/51 64/68/50 
f 47/50/29 48/51/30 66/70/52 65/69/51 
f 48/51/30 49/52/31 67/71/53 66/70/52 
f 49/52/31 50/53/32 68/72/54 67/71/53 
f 50/53/32 51/54/33 69/73/55 68/72/54 
f 51/54/33 52/55/34 70/74/56 69/73/55 
f 52/55/34 53/56/40 71/75/40 70/74/56 
f 53/56/40 54/57/41 72/76/41 71/75/40 
f 54/57/41 55/58/42 73/77/42 72/76/41 
f 55/58/42 39/41/21 57/60/44 73/77/42 
f 57/60/44 56/59/43 74/78/43 75/79/44 
f 56/59/43 58/61/45 76/80/45 74/78/43 
f 58/61/45 59/62/46 77/81/46 76/80/45 
f 59/62/46 60/63/47 78/82/47 77/81/46 
f 60/65/47 61/64/38 79/83/38 78/84/47 
f 61/64/38 62/66/48 80/85/48 79/83/38 
f 62/66/48 63/67/49 81/86/49 80/85/48 
f 63/67/49 64/68/50 82/87/50 81/86/49 
f 64/68/50 65/69/51 83/88/51 82/87/50 
f 65/69/51 66/70/52 84/89/52 83/88/51 
f 66/70/52 67/71/53 85/90/53 84/89/52 
f 67/71/53 68/72/54 86/91/54 85/90/53 
f 68/72/54 69/73/55 87/92/55 86/91/54 
f 69/73/55 70/74/56 88/93/56 87/92/55 
f 70/74/56 71/75/40 89/94/40 88/93/56 
f 71/75/40 72/76/41 90/95/41 89/94/40 
f 72/76/41 73/77/42 91/96/42 90/95/41 
f 73/77/42 57/60/44 75/79/44 91/96/42 
f 75/79/44 74/78/43 92/97/57 93/98/58 
f 74/78/43 76/80/45 94/99/59 92/97/57 
f 76/80/45 77/81/46 95/100/60 94/99/59 
f 77/81/46 78/82/47 96/101/61 95/100/60 
f 78/84/47 79/83/38 97/102/62 96/103/61 
f 79/83/38 80/85/48 98/104/63 97/102/62 
f 80/85/48 81/86/49 99/105/64 98/104/63 
f 81/86/49 82/87/50 100/106/65 99/105/64 
f 82/87/50 83/88/51 101/107/66 100/106/65 
f 83/88/51 84/89/52 102/108/67 101/107/66 
f 84/89/52 85/90/53 103/109/68 102/108/67 
f 85/90/53 86/91/54 104/110/69 103/109/68 
f 86/91/54 87/92/55 105/111/70 104/110/69 
f 87/92/55 88/93/56 106/112/71 105/111/70 
f 88/93/56 89/94/40 107/113/72 106/112/71 
f 89/94/40 90/95/41 108/114/73 107/113/72 
f 90/95/41 91/96/42 109/115/74 108/114/73 
f 91/96/42 75/79/44 93/98/58 109/115/74 
s 1
f 110/116/75 109/115/74 93/98/58 92/97/57 
f 110/116/75 92/97/57 94/99/59 95/100/60 
f 110/116/75 95/117/60 96/103/61 97/102/62 
f 110/116/75 97/102/62 98/104/63 99/105/64 
f 110/116/75 99/105/64 100/106/65 101/107/66 
f 110/116/75 101/107/66 102/108/67 103/109/68 
f 110/116/75 103/109/68 104/110/69 105/111/70 
f 110/116/75 105/111/70 106/112/71 107/113/72 
f 110/116/75 107/113/72 108/114/73 109/115/74 
# 108 polygons

